<?xml version="1.0" encoding="utf-8"?>
<!-- Generator: Adobe Illustrator 14.0.0, SVG Export Plug-In . SVG Version: 6.00 Build 43363)  -->
<!DOCTYPE svg PUBLIC "-//W3C//DTD SVG 1.1//EN" "http://www.w3.org/Graphics/SVG/1.1/DTD/svg11.dtd">
<svg version="1.1" id="Layer_1" xmlns="http://www.w3.org/2000/svg" xmlns:xlink="http://www.w3.org/1999/xlink" x="0px" y="0px"
	 width="200px" height="65px" viewBox="0 0 200 65" enable-background="new 0 0 200 65" xml:space="preserve">
<g>
	<path fill="#010101" d="M189.247,47.354h2.831l0.588-2.636h-2.838L189.247,47.354z M186.636,60.124h2.704l2.288-10.911h-2.806
		L186.636,60.124 M183.48,57.13c-1.129,0.617-2.36,1.138-3.698,1.138c-1.899,0-2.908-1.027-2.656-2.73h7.454
		c0.804-3.833,0.241-6.517-3.614-6.517c-3.486,0-5.789,2.508-6.395,5.785c-0.759,3.462,0.876,5.487,4.447,5.487
		c1.686,0,2.872-0.207,3.976-0.892L183.48,57.13 M177.534,53.74c0.414-1.546,1.421-2.762,3.161-2.762
		c1.524,0,1.914,1.283,1.711,2.762H177.534 M159.761,64.399h2.787l1.37-5.66h0.036c0.719,1.347,1.622,1.554,2.749,1.554
		c3.295,0,5.05-2.721,5.674-5.576c0.581-3.119-0.032-5.696-3.242-5.696c-1.604,0-2.814,0.693-3.642,1.689h-0.038l0.324-1.497h-2.838
		L159.761,64.399 M167.955,51.109c1.755,0,1.829,2.077,1.544,3.607c-0.286,1.437-1.248,3.428-3.026,3.428
		c-1.8,0-1.973-1.949-1.671-3.428C165.092,53.127,166.208,51.109,167.955,51.109 M157.441,44.719h2.853l-0.566,2.636h-2.849
		L157.441,44.719 M156.458,49.213h2.861l-2.348,10.911h-2.729L156.458,49.213 M152.096,53.713c0.643-3.344-0.397-4.692-3.602-4.692
		c-1.366,0-2.861,0.256-4.016,0.784l-0.425,2.457c1.047-0.801,2.301-1.283,3.484-1.283c1.827,0,2.445,0.619,2.079,2.497h-1.519
		c-1.343,0-2.704,0.176-3.834,0.603c-1.203,0.546-2.245,1.417-2.586,2.988c-0.394,2.034,1.235,3.227,3.123,3.227
		c1.275,0,2.997-0.683,3.87-1.846h0.045c-0.056,0.254-0.214,1-0.223,1.677h2.417L152.096,53.713 M144.479,56.952
		c0.305-1.603,2.172-1.771,3.605-1.771h1.21c-0.172,0.752-0.461,1.57-1.049,2.085c-0.734,0.608-1.493,1.002-2.308,1.002
		C144.932,58.268,144.284,57.854,144.479,56.952 M137.89,46.956h-4.104l0.495-2.237h11.14l-0.488,2.237h-4.193l-2.743,13.168h-2.84
		L137.89,46.956"/>
	<path fill="#010101" d="M200,25.896c0-5.813-4.183-10.446-12.123-10.446c-9.129,0-14.99,5.603-14.99,13.698
		c0,5.934,3.43,10.672,12.114,10.672C193.742,39.82,200,35.606,200,25.896 M191.958,25.492c0,6.201-2.68,9.85-6.38,9.85
		c-2.734,0.049-4.582-2.374-4.582-6.139c0-4.318,2.63-9.175,6.479-9.175C190.583,20.028,191.958,22.671,191.958,25.492
		 M169.276,15.365c1.47,0,4.092,0.402,5.538,1.227l-2.546,5.048c-1.019-0.536-2.408-1.556-4.373-1.556
		c-2.865,0-4.29,1.248-5.404,5.92c0,0-1.994,9.436-2.13,10.307c-0.289,1.664,0.245,2.945,0.245,2.945h-8.714
		c0,0,4.066-18.864,4.31-20.083c0.33-1.727-0.265-3.207-0.265-3.207h7.898C165.496,15.436,168.111,15.365,169.276,15.365
		 M139.076,15.972c0.287-1.485-0.334-3.146-0.334-3.146l9.45-2.606l-1.259,5.747h6.077l-0.744,4.674h-6.28
		c0,0-3.163,14.376-3.396,15.714c-0.222,1.36,0.254,2.901,0.254,2.901h-8.687C134.157,39.256,138.944,16.678,139.076,15.972
		 M130.401,34.308c-4.55,0.992-6.847,0.992-9.012,0.992c-4.411,0-6.407-2.343-6.331-5.34h16.591
		c0.198-1.201,0.379-2.666,0.501-3.666c0.884-7.508-4.903-10.844-10.693-10.844c-10.37,0-13.936,8.341-13.936,13.698
		c0,5.934,4.185,10.672,11.992,10.672c2.301,0,5.318-0.137,8.615-0.77L130.401,34.308 M115.534,25.459
		c0.52-3.024,2.034-5.401,5.774-5.321c2.946,0.063,3.901,2.036,3.477,5.321H115.534 M75.565,15.966
		c1.592-0.592,4.754-0.754,7.242-0.298c1.938,0.361,3.639,1.27,4.621,2.138c2.473-1.533,5.302-2.465,9.144-2.32
		c4.231,0.159,8.2,1.617,8.116,6.615c-0.025,1.503-0.502,3.54-1.009,5.518c0,0-1.66,7.526-1.836,8.615
		c-0.213,1.273,0.094,3.021,0.094,3.021h-8.491l2.87-13.436c0.262-1.231,0.474-2.214,0.526-3.14
		c0.081-1.551-0.977-2.626-2.717-2.626c-3.359,0-4.068,2.717-4.591,5.226c0,0-2.288,10.236-2.394,11.061
		c-0.147,1.132,0.202,2.916,0.202,2.916h-8.566l2.766-13.436c0.263-1.231,0.53-2.335,0.572-3.264
		c0.045-1.509-0.594-2.503-2.538-2.503c-3.407,0-4.239,2.594-4.836,5.149c0,0-2.07,9.885-2.268,10.855
		c-0.258,1.29,0.041,3.197,0.041,3.197h-8.526c0,0,3.999-18.615,4.286-19.997c0.401-1.966-0.075-3.292-0.075-3.292H75.565"/>
	<path fill="#7AB51D" d="M28.934,19.537c-0.741,0.75-2.364,2.42-2.957,3.012c-0.716,0.71-1.27,0.771-1.998,0.771h-2.208
		c0,0,5.963-6.003,6.496-6.532c0.575-0.574,1.102-0.756,1.934-0.756H39.6l-1.042-2.295H26.163c-1.157,0-1.799,0.265-2.884,1.326
		c-1.038,1.052-6.977,7.01-7.509,7.526c-0.723,0.734-1.099,0.797-2.07,0.797h-3.18L2.78,31.185h16.868
		c1.228,0,1.956-0.252,2.794-1.104c0.823-0.869,6.266-6.262,7.02-6.996c0.79-0.797,1.266-0.949,2.275-0.949h12.607l-1.691-3.812
		H31.647C30.459,18.325,29.868,18.619,28.934,19.537 M56.305,25.234c-5.115,18.911-20.771,29.65-35.292,29.65
		c-13.174,0-21.626-9.353-20.978-21.565h9.789c-0.671,9.896,6.429,16.778,15.867,16.37c10.247-0.429,20.135-8.318,24.574-18.449
		L56.305,25.234"/>
	<path fill="#006AB2" d="M6.464,24.244c4.44-10.13,14.329-18.018,24.608-18.45c9.445-0.448,16.538,6.433,15.862,16.371h9.763
		C57.337,9.949,48.883,0.601,35.715,0.601c-14.527,0-30.182,10.733-35.312,29.641L6.464,24.244z M27.792,35.922
		c0.744-0.772,2.354-2.39,2.956-2.988c0.759-0.715,1.311-0.771,2.03-0.771h2.178c0,0-5.969,5.999-6.5,6.531
		c-0.572,0.575-1.104,0.76-1.929,0.76h-9.365l1.017,2.295h12.376c1.202,0,1.851-0.262,2.898-1.328
		c1.039-1.05,7.014-7.011,7.51-7.524c0.719-0.736,1.093-0.8,2.061-0.8h3.231l7.734-7.798H37.075c-1.228,0-1.954,0.25-2.787,1.113
		c-0.822,0.863-6.278,6.249-7.02,6.985c-0.792,0.802-1.266,0.947-2.234,0.947H12.378l1.691,3.814h11.053
		C26.264,37.158,26.862,36.873,27.792,35.922"/>
</g>
</svg>
